<mxfile host="Electron" agent="Mozilla/5.0 (Windows NT 10.0; Win64; x64) AppleWebKit/537.36 (KHTML, like Gecko) draw.io/26.0.3 Chrome/130.0.6723.137 Electron/33.2.1 Safari/537.36" version="26.0.3">
  <diagram id="sU1eFDCjPMehlGD9XlzH" name="Page-1">
    <mxGraphModel dx="1418" dy="940" grid="1" gridSize="10" guides="1" tooltips="1" connect="1" arrows="1" fold="1" page="1" pageScale="1" pageWidth="850" pageHeight="1100" math="0" shadow="0">
      <root>
        <mxCell id="0" />
        <mxCell id="1" parent="0" />
        <mxCell id="dDbz6tNlugugnMeiO2d0-4" value="On-Premise" style="outlineConnect=0;gradientColor=none;html=1;whiteSpace=wrap;fontSize=12;fontStyle=0;shape=mxgraph.aws4.group;grIcon=mxgraph.aws4.group_on_premise;strokeColor=#858B94;fillColor=none;verticalAlign=top;align=left;spacingLeft=30;fontColor=#858B94;dashed=0;" parent="1" vertex="1">
          <mxGeometry x="40" y="320" width="760" height="760" as="geometry" />
        </mxCell>
        <mxCell id="dDbz6tNlugugnMeiO2d0-5" value="" style="rounded=0;whiteSpace=wrap;html=1;fillColor=#f5f5f5;strokeColor=#666666;fontColor=#333333;" parent="1" vertex="1">
          <mxGeometry x="80" y="360" width="680" height="480" as="geometry" />
        </mxCell>
        <mxCell id="dDbz6tNlugugnMeiO2d0-8" value="" style="rounded=0;whiteSpace=wrap;html=1;fillColor=#E6D0DE;" parent="1" vertex="1">
          <mxGeometry x="120" y="480" width="441.54" height="200" as="geometry" />
        </mxCell>
        <mxCell id="09qVIn4garVTmZvIWG27-9" value="" style="rounded=0;whiteSpace=wrap;html=1;dashed=1;" parent="1" vertex="1">
          <mxGeometry x="140" y="520" width="400" height="140" as="geometry" />
        </mxCell>
        <mxCell id="QzUOt9LYZW4u0u_RYMLB-2" value="" style="edgeStyle=orthogonalEdgeStyle;rounded=0;orthogonalLoop=1;jettySize=auto;html=1;entryX=0.5;entryY=0;entryDx=0;entryDy=0;" parent="1" source="eEIXSNO6dx6YmKYksSZ7-15" target="eEIXSNO6dx6YmKYksSZ7-16" edge="1">
          <mxGeometry relative="1" as="geometry">
            <mxPoint x="700" y="280" as="targetPoint" />
          </mxGeometry>
        </mxCell>
        <mxCell id="eEIXSNO6dx6YmKYksSZ7-15" value="DockerHub" style="outlineConnect=0;gradientColor=none;html=1;whiteSpace=wrap;fontSize=12;fontStyle=0;shape=mxgraph.aws4.group;grIcon=mxgraph.aws4.group_aws_cloud;strokeColor=#858B94;fillColor=none;verticalAlign=top;align=left;spacingLeft=30;fontColor=#858B94;dashed=0;" parent="1" vertex="1">
          <mxGeometry x="640" y="40" width="120" height="160" as="geometry" />
        </mxCell>
        <mxCell id="dDbz6tNlugugnMeiO2d0-2" value="AWS Cloud" style="outlineConnect=0;gradientColor=none;html=1;whiteSpace=wrap;fontSize=12;fontStyle=0;shape=mxgraph.aws4.group;grIcon=mxgraph.aws4.group_aws_cloud;strokeColor=#858B94;fillColor=none;verticalAlign=top;align=left;spacingLeft=30;fontColor=#858B94;dashed=0;" parent="1" vertex="1">
          <mxGeometry x="80" y="40" width="520" height="160" as="geometry" />
        </mxCell>
        <mxCell id="dDbz6tNlugugnMeiO2d0-1" value="AWS IoT Core" style="outlineConnect=0;fontColor=#232F3E;gradientColor=none;strokeColor=#ffffff;fillColor=#232F3E;dashed=0;verticalLabelPosition=middle;verticalAlign=bottom;align=center;html=1;whiteSpace=wrap;fontSize=10;fontStyle=1;spacing=3;shape=mxgraph.aws4.productIcon;prIcon=mxgraph.aws4.iot_core;" parent="1" vertex="1">
          <mxGeometry x="481.53999999999996" y="80" width="80" height="100" as="geometry" />
        </mxCell>
        <mxCell id="eEIXSNO6dx6YmKYksSZ7-10" value="" style="edgeStyle=orthogonalEdgeStyle;rounded=0;orthogonalLoop=1;jettySize=auto;html=1;startArrow=classic;startFill=1;" parent="1" source="dDbz6tNlugugnMeiO2d0-3" target="dDbz6tNlugugnMeiO2d0-1" edge="1">
          <mxGeometry relative="1" as="geometry" />
        </mxCell>
        <mxCell id="dDbz6tNlugugnMeiO2d0-3" value="AWS Lambda" style="outlineConnect=0;fontColor=#232F3E;gradientColor=none;strokeColor=#ffffff;fillColor=#232F3E;dashed=0;verticalLabelPosition=middle;verticalAlign=bottom;align=center;html=1;whiteSpace=wrap;fontSize=10;fontStyle=1;spacing=3;shape=mxgraph.aws4.productIcon;prIcon=mxgraph.aws4.lambda;" parent="1" vertex="1">
          <mxGeometry x="360.77000000000004" y="80" width="80" height="100" as="geometry" />
        </mxCell>
        <mxCell id="dDbz6tNlugugnMeiO2d0-15" value="Greengrass" style="text;html=1;strokeColor=none;fillColor=none;align=center;verticalAlign=middle;whiteSpace=wrap;rounded=0;" parent="1" vertex="1">
          <mxGeometry x="125.77000000000001" y="360" width="70" height="20" as="geometry" />
        </mxCell>
        <mxCell id="dDbz6tNlugugnMeiO2d0-20" value="&lt;font color=&quot;#00ff00&quot;&gt;AWS IoT Integration&lt;/font&gt;" style="text;html=1;strokeColor=none;fillColor=none;align=center;verticalAlign=middle;whiteSpace=wrap;rounded=0;" parent="1" vertex="1">
          <mxGeometry x="321.53999999999996" y="240" width="79.23" height="40" as="geometry" />
        </mxCell>
        <mxCell id="dDbz6tNlugugnMeiO2d0-26" value="" style="rounded=0;whiteSpace=wrap;html=1;fillColor=#f5f5f5;strokeColor=#666666;fontColor=#333333;" parent="1" vertex="1">
          <mxGeometry x="80" y="880" width="520" height="160" as="geometry" />
        </mxCell>
        <mxCell id="dDbz6tNlugugnMeiO2d0-30" value="" style="outlineConnect=0;fontColor=#232F3E;gradientColor=none;strokeColor=#232F3E;fillColor=#ffffff;dashed=0;verticalLabelPosition=bottom;verticalAlign=top;align=center;html=1;fontSize=12;fontStyle=0;aspect=fixed;shape=mxgraph.aws4.resourceIcon;resIcon=mxgraph.aws4.generic;" parent="1" vertex="1">
          <mxGeometry x="111.53999999999996" y="980" width="40" height="40" as="geometry" />
        </mxCell>
        <mxCell id="dDbz6tNlugugnMeiO2d0-34" value="" style="outlineConnect=0;fontColor=#232F3E;gradientColor=none;strokeColor=#232F3E;fillColor=#ffffff;dashed=0;verticalLabelPosition=bottom;verticalAlign=top;align=center;html=1;fontSize=12;fontStyle=0;aspect=fixed;shape=mxgraph.aws4.resourceIcon;resIcon=mxgraph.aws4.generic;" parent="1" vertex="1">
          <mxGeometry x="161.53999999999996" y="980" width="40" height="40" as="geometry" />
        </mxCell>
        <mxCell id="dDbz6tNlugugnMeiO2d0-35" value="" style="outlineConnect=0;fontColor=#232F3E;gradientColor=none;strokeColor=#232F3E;fillColor=#ffffff;dashed=0;verticalLabelPosition=bottom;verticalAlign=top;align=center;html=1;fontSize=12;fontStyle=0;aspect=fixed;shape=mxgraph.aws4.resourceIcon;resIcon=mxgraph.aws4.generic;" parent="1" vertex="1">
          <mxGeometry x="211.53999999999994" y="980" width="40" height="40" as="geometry" />
        </mxCell>
        <mxCell id="eEIXSNO6dx6YmKYksSZ7-38" value="" style="edgeStyle=orthogonalEdgeStyle;rounded=0;orthogonalLoop=1;jettySize=auto;html=1;startArrow=none;startFill=0;endArrow=classic;endFill=1;" parent="1" source="dDbz6tNlugugnMeiO2d0-36" edge="1">
          <mxGeometry relative="1" as="geometry">
            <Array as="points">
              <mxPoint x="182" y="860" />
              <mxPoint x="240" y="860" />
            </Array>
            <mxPoint x="240" y="680" as="targetPoint" />
          </mxGeometry>
        </mxCell>
        <mxCell id="dDbz6tNlugugnMeiO2d0-36" value="" style="aspect=fixed;pointerEvents=1;shadow=0;dashed=0;html=1;strokeColor=none;labelPosition=center;verticalLabelPosition=bottom;verticalAlign=top;align=center;fillColor=#000000;shape=mxgraph.mscae.enterprise.router" parent="1" vertex="1">
          <mxGeometry x="162.30999999999997" y="920" width="38.46" height="30" as="geometry" />
        </mxCell>
        <mxCell id="eEIXSNO6dx6YmKYksSZ7-1" value="AWS Greengrass" style="outlineConnect=0;fontColor=#232F3E;gradientColor=none;strokeColor=#ffffff;fillColor=#232F3E;dashed=0;verticalLabelPosition=middle;verticalAlign=bottom;align=center;html=1;whiteSpace=wrap;fontSize=10;fontStyle=1;spacing=3;shape=mxgraph.aws4.productIcon;prIcon=mxgraph.aws4.greengrass;" parent="1" vertex="1">
          <mxGeometry x="120.77000000000001" y="80" width="80" height="110" as="geometry" />
        </mxCell>
        <mxCell id="eEIXSNO6dx6YmKYksSZ7-2" value="AWS Secrets Manager" style="outlineConnect=0;fontColor=#232F3E;gradientColor=none;strokeColor=#ffffff;fillColor=#232F3E;dashed=0;verticalLabelPosition=middle;verticalAlign=bottom;align=center;html=1;whiteSpace=wrap;fontSize=10;fontStyle=1;spacing=3;shape=mxgraph.aws4.productIcon;prIcon=mxgraph.aws4.secrets_manager;" parent="1" vertex="1">
          <mxGeometry x="241.54" y="80" width="80" height="110" as="geometry" />
        </mxCell>
        <mxCell id="eEIXSNO6dx6YmKYksSZ7-3" value="" style="outlineConnect=0;fontColor=#232F3E;gradientColor=none;strokeColor=#ffffff;fillColor=#232F3E;dashed=0;verticalLabelPosition=middle;verticalAlign=bottom;align=center;html=1;whiteSpace=wrap;fontSize=10;fontStyle=1;spacing=3;shape=mxgraph.aws4.productIcon;prIcon=mxgraph.aws4.greengrass;" parent="1" vertex="1">
          <mxGeometry x="80" y="360" width="40" height="40" as="geometry" />
        </mxCell>
        <mxCell id="eEIXSNO6dx6YmKYksSZ7-6" value="" style="endArrow=classic;html=1;entryX=0.118;entryY=0;entryDx=0;entryDy=0;entryPerimeter=0;" parent="1" target="dDbz6tNlugugnMeiO2d0-5" edge="1">
          <mxGeometry width="50" height="50" relative="1" as="geometry">
            <mxPoint x="160" y="190" as="sourcePoint" />
            <mxPoint x="190" y="300" as="targetPoint" />
          </mxGeometry>
        </mxCell>
        <mxCell id="eEIXSNO6dx6YmKYksSZ7-7" value="" style="endArrow=classic;html=1;" parent="1" edge="1">
          <mxGeometry width="50" height="50" relative="1" as="geometry">
            <mxPoint x="281.04" y="190" as="sourcePoint" />
            <mxPoint x="281" y="400" as="targetPoint" />
          </mxGeometry>
        </mxCell>
        <mxCell id="eEIXSNO6dx6YmKYksSZ7-8" value="" style="endArrow=classic;html=1;startArrow=classic;startFill=1;entryX=0.636;entryY=0;entryDx=0;entryDy=0;entryPerimeter=0;strokeColor=#00FF00;" parent="1" target="dDbz6tNlugugnMeiO2d0-8" edge="1">
          <mxGeometry width="50" height="50" relative="1" as="geometry">
            <mxPoint x="401.04" y="190" as="sourcePoint" />
            <mxPoint x="400" y="400" as="targetPoint" />
          </mxGeometry>
        </mxCell>
        <mxCell id="eEIXSNO6dx6YmKYksSZ7-9" value="" style="endArrow=classic;html=1;startArrow=classic;startFill=1;strokeColor=#0000FF;dashed=1;" parent="1" edge="1">
          <mxGeometry width="50" height="50" relative="1" as="geometry">
            <mxPoint x="520" y="190" as="sourcePoint" />
            <mxPoint x="520" y="479" as="targetPoint" />
          </mxGeometry>
        </mxCell>
        <mxCell id="eEIXSNO6dx6YmKYksSZ7-11" value="&lt;font color=&quot;#0000ff&quot;&gt;TTS Pub/Sub Integration direct to IoT Core&lt;/font&gt;" style="text;html=1;strokeColor=none;fillColor=none;align=center;verticalAlign=middle;whiteSpace=wrap;rounded=0;" parent="1" vertex="1">
          <mxGeometry x="439.77" y="240" width="80.23" height="40" as="geometry" />
        </mxCell>
        <mxCell id="eEIXSNO6dx6YmKYksSZ7-12" value="TTS Configuration" style="text;html=1;strokeColor=none;fillColor=none;align=center;verticalAlign=middle;whiteSpace=wrap;rounded=0;" parent="1" vertex="1">
          <mxGeometry x="200.77" y="240" width="79.23" height="40" as="geometry" />
        </mxCell>
        <mxCell id="eEIXSNO6dx6YmKYksSZ7-13" value="Deploy components" style="text;html=1;strokeColor=none;fillColor=none;align=center;verticalAlign=middle;whiteSpace=wrap;rounded=0;" parent="1" vertex="1">
          <mxGeometry x="80" y="240" width="79.23" height="40" as="geometry" />
        </mxCell>
        <mxCell id="eEIXSNO6dx6YmKYksSZ7-14" value="" style="aspect=fixed;html=1;points=[];align=center;image;fontSize=12;image=img/lib/mscae/Docker.svg;" parent="1" vertex="1">
          <mxGeometry x="675" y="99.5" width="50" height="41" as="geometry" />
        </mxCell>
        <mxCell id="QzUOt9LYZW4u0u_RYMLB-4" value="" style="edgeStyle=orthogonalEdgeStyle;rounded=0;orthogonalLoop=1;jettySize=auto;html=1;exitX=0.5;exitY=1;exitDx=0;exitDy=0;" parent="1" source="eEIXSNO6dx6YmKYksSZ7-16" edge="1">
          <mxGeometry relative="1" as="geometry">
            <mxPoint x="562" y="520" as="targetPoint" />
            <Array as="points">
              <mxPoint x="700" y="520" />
              <mxPoint x="562" y="520" />
            </Array>
          </mxGeometry>
        </mxCell>
        <mxCell id="eEIXSNO6dx6YmKYksSZ7-16" value="Docker application manager component" style="rounded=1;whiteSpace=wrap;html=1;" parent="1" vertex="1">
          <mxGeometry x="660" y="400" width="80" height="60" as="geometry" />
        </mxCell>
        <mxCell id="eEIXSNO6dx6YmKYksSZ7-24" value="" style="edgeStyle=orthogonalEdgeStyle;rounded=0;orthogonalLoop=1;jettySize=auto;html=1;startArrow=none;startFill=0;endArrow=classic;endFill=1;" parent="1" source="eEIXSNO6dx6YmKYksSZ7-17" edge="1">
          <mxGeometry relative="1" as="geometry">
            <mxPoint x="281" y="482" as="targetPoint" />
            <Array as="points">
              <mxPoint x="281" y="482" />
            </Array>
          </mxGeometry>
        </mxCell>
        <mxCell id="eEIXSNO6dx6YmKYksSZ7-17" value="Secret manager component" style="rounded=1;whiteSpace=wrap;html=1;" parent="1" vertex="1">
          <mxGeometry x="230" y="400" width="100" height="40" as="geometry" />
        </mxCell>
        <mxCell id="eEIXSNO6dx6YmKYksSZ7-39" value="" style="edgeStyle=orthogonalEdgeStyle;rounded=0;orthogonalLoop=1;jettySize=auto;html=1;startArrow=none;startFill=0;endArrow=classic;endFill=1;" parent="1" source="eEIXSNO6dx6YmKYksSZ7-27" edge="1">
          <mxGeometry relative="1" as="geometry">
            <mxPoint x="240" y="680" as="targetPoint" />
            <Array as="points">
              <mxPoint x="499" y="860" />
              <mxPoint x="240" y="860" />
            </Array>
          </mxGeometry>
        </mxCell>
        <mxCell id="eEIXSNO6dx6YmKYksSZ7-27" value="" style="aspect=fixed;pointerEvents=1;shadow=0;dashed=0;html=1;strokeColor=none;labelPosition=center;verticalLabelPosition=bottom;verticalAlign=top;align=center;fillColor=#000000;shape=mxgraph.mscae.enterprise.router" parent="1" vertex="1">
          <mxGeometry x="480" y="920" width="38.46" height="30" as="geometry" />
        </mxCell>
        <mxCell id="eEIXSNO6dx6YmKYksSZ7-29" value="" style="outlineConnect=0;fontColor=#232F3E;gradientColor=none;strokeColor=#232F3E;fillColor=#ffffff;dashed=0;verticalLabelPosition=bottom;verticalAlign=top;align=center;html=1;fontSize=12;fontStyle=0;aspect=fixed;shape=mxgraph.aws4.resourceIcon;resIcon=mxgraph.aws4.generic;" parent="1" vertex="1">
          <mxGeometry x="429.23" y="980" width="40" height="40" as="geometry" />
        </mxCell>
        <mxCell id="eEIXSNO6dx6YmKYksSZ7-30" value="" style="outlineConnect=0;fontColor=#232F3E;gradientColor=none;strokeColor=#232F3E;fillColor=#ffffff;dashed=0;verticalLabelPosition=bottom;verticalAlign=top;align=center;html=1;fontSize=12;fontStyle=0;aspect=fixed;shape=mxgraph.aws4.resourceIcon;resIcon=mxgraph.aws4.generic;" parent="1" vertex="1">
          <mxGeometry x="479.23" y="980" width="40" height="40" as="geometry" />
        </mxCell>
        <mxCell id="eEIXSNO6dx6YmKYksSZ7-31" value="" style="outlineConnect=0;fontColor=#232F3E;gradientColor=none;strokeColor=#232F3E;fillColor=#ffffff;dashed=0;verticalLabelPosition=bottom;verticalAlign=top;align=center;html=1;fontSize=12;fontStyle=0;aspect=fixed;shape=mxgraph.aws4.resourceIcon;resIcon=mxgraph.aws4.generic;" parent="1" vertex="1">
          <mxGeometry x="529.23" y="980" width="40" height="40" as="geometry" />
        </mxCell>
        <mxCell id="eEIXSNO6dx6YmKYksSZ7-35" value="LoRaWAN Gateways" style="text;html=1;strokeColor=none;fillColor=none;align=center;verticalAlign=middle;whiteSpace=wrap;rounded=0;" parent="1" vertex="1">
          <mxGeometry x="280.77" y="920" width="120" height="30" as="geometry" />
        </mxCell>
        <mxCell id="eEIXSNO6dx6YmKYksSZ7-37" value="LoRaWAN Devices" style="text;html=1;strokeColor=none;fillColor=none;align=center;verticalAlign=middle;whiteSpace=wrap;rounded=0;" parent="1" vertex="1">
          <mxGeometry x="280.77" y="985" width="120" height="30" as="geometry" />
        </mxCell>
        <mxCell id="09qVIn4garVTmZvIWG27-1" value="" style="rounded=0;whiteSpace=wrap;html=1;" parent="1" vertex="1">
          <mxGeometry x="160" y="540" width="100" height="100" as="geometry" />
        </mxCell>
        <mxCell id="09qVIn4garVTmZvIWG27-4" value="" style="rounded=0;whiteSpace=wrap;html=1;" parent="1" vertex="1">
          <mxGeometry x="260" y="540" width="160" height="100" as="geometry" />
        </mxCell>
        <mxCell id="09qVIn4garVTmZvIWG27-5" value="" style="rounded=0;whiteSpace=wrap;html=1;" parent="1" vertex="1">
          <mxGeometry x="420" y="540" width="100" height="100" as="geometry" />
        </mxCell>
        <mxCell id="dDbz6tNlugugnMeiO2d0-9" value="" style="shape=image;verticalLabelPosition=bottom;labelBackgroundColor=#ffffff;verticalAlign=top;aspect=fixed;imageAspect=0;image=data:image/png,iVBORw0KGgoAAAANSUhEUgAAAXgAAABSCAYAAABe3c9CAAAABmJLR0QA/wD/AP+gvaeTAAApoElEQVR42u2dB5gURdrHFwOYAyZEJMmdYQ/JSVCM6AlI8PC800MwIIiSlgU2MqRdlrxkJMmSF1h2WZIYUEE4PMTIqXfnfXyf53nGO0/FBPt+7ztVvdvTW1Wdqmdnoet5/s/szvRUV/dM/7rmX2+9lZRUDUvdTLi6XjqMviIDll2eAdPrZsAN8dhvn0I4tfsCuLXbPMjrPhee6ToX0rstgCvise/IdjgvuxQeyC6BuWNLYSn+3T+yG86Ix743/QkabzgIKRv+BEvXvwb56w/CLUlhCUtYwqKrNMiERvUyYAxC/Q0UkOqahP/PTEqCGtrBGoFTus+DTgj1Ofj4CQq6keYyIeS/wf+7B3HMI5+FsyNb4f6sLbA5ewt8j4Iss0rgcEZpMDeY4tfgysKDMALBfgAfofBPAOu51r0GsOY1WBYBOCX8ZoYlLGHxVK6IQL0rMmE46gAKRGAnXU5Kx7/T4BFd++65ANreMx+m3zMPPiKol4M9Fu6GvusyD67UckPBXjn2zntFSmHd2C3wHUHdkAnskFmhV3Qdc+FrUGfj6/DkpoOwB8FetoGDvdAEdtJa0oEo5FPCb2lYwhIWx6VROlxWLwueRKDvqZcJx6NgdwD3qDLgTT/77rUQmiHUc1Af3sOhLoJ7V4vunhNVxDPUC6HmuK3QFaFegPbL1ygwg10Bd8goiT7Xwuu+iw7ARZtehwGoFxDuxzYi1KNgF/TaY+COWn0AjoTf2LCEJSzKUn8MXFg/C/oi0EtRP6OgngXsQrinx6pOOpRdkQYXudl39znQqMd8GI1Afw/BDlGJ4F651w53V8Adfj0Hdru1fhDonVD5qE8J6oaEYJfAPaMYtRmGueqpH4Tziw5B36I3oBTB/iMKEO5RsNvBfY0B9z8yrd0PDcNvcFjCEpaY0ng0nG+C+o8G1MvBrui1S+AeVd0x0MVu373nQgOE+FAE+94eBtS5unuDO+kbGoR1AfVPIiaoK+FuAXsM3FHpxbDaFur74Mzit6D75kNQgHD/btMhAAPsRq/d1pKxwH0VauV+uC/8NoclLGFJqjcczqyfDd0R4gVXZsJ3V5qg7hTul2eIwW7osjGQIYT6YqjXcyFCfUEU6mUE9hi4KyyZbmJLxgz3qO6cC8mifY/fAsnjSiGCNszfcdAUCOwRBdjtLBkL3El/Fe13N/r5BPXiN6EAwf4Ngh2KONhlcF/vAO6rKuAOK/fB1PCbHZawnKSlYQTOIKjXJ6hnwTcoILBL4e7OkomFexoqHYqNffeaCxf1nA8DCOo4aFqGj1AJ7DZwl/XarXC/azYCfg70F0D9r+MI6iawR5z02lWWTAXYDZWlFTFrqhB/RRQfgtsJ6sVvwNeb3wDYzMFuhbsrS8YM9/0c7qiCffBSdfgetmrV6uKWLVu28iOspoaqvjZt2jRXtaFZs2ZXWN+D5RrrdjfffPMZXtqH5Syn56NFixZ1fZ6P6x3Ud62qDXi+GgvOYWPrdu3atTtP8nlUiuKidgnOy+V25yM5Ofkc0T7wszjNxdesBra/Db5vGO5zGj4uxcfprVu3Ho5/92ratOmFfr7DeI4bYH2DULOxzmVY5xz8eyj+3db83Qy+9IFTEei3E9TRhvk6CnVDDnrtruGexuGOapQNn+Ngad9eC6AUof4zCnqawK7RkmGazeBOenApFBHUx5fC+wR1Q7Jeuw9LplxpzIOHpa9A+pY3Ib/kTfgMwQ4kEdw3WuFusmTWO7BkDLgXMLjDin3wLf5SOC3RAY8Xw2N4MYAfIQRqGvXhRfWIYJuvbNqQJ3jPfsHN6Bov7UMAtHZxw5vg83x8bKlvvGCbQ6o24DlcZ30PPSc4b3dJ2nCW4Lg+Fmz3Ad00bT6bGyXn9BIHN4eauG0K6ojNOfsRtR51lZvvLt4z6mD71uL7jinqpn1Pvv766y8NDuoZ0AmBnt8gCz7DR6hvBrtDuLu1ZAjutJ8bpjI4G0A3Swh3DZYMQb3P0wDD1jNAm6FuB3enlowU7rjt7N0MztveBih9C6CEg71Y0Wv3bcnEwj2q5fugaQj4EPAJDHiqd1IQgOe/EP7i8twdxfelO+l10y8S3P5TF3V/i+qq56rBQcP6EejUcGwU6p8YUK8Ed6+WjALu9P62eQzG2GOvgDkHuvlvN3Dv6gDu9y1GqBciqE1QL7dftgqe0+i3T9vFgLwdob79HQb3rQT4t+W9divcHYZAiuG+rwLuz7zKtVff/IMQ8CHggwA86ierreQX8Ph6F9R/vZ5DPNZFIpvJbAOi/uWy3h/Q0qrn62JBeCc3zIbJDbLhYxRIwS7ptXv12w2ok13Se2FlsBsA7zFfryVDuhf3NXQ9g/V4C8Sj4OawNiDvym8vUfvt03cx+G5DoO94JxbsW3nvfctbDi2Zg74tmRi4LyfthYUh4EPAJzjgSQf69Olzqg7Ao22SzHvLfs7hcTzejorvy0K3dZIv7wfqEQT6XwnqUWW5h7tbS+YKS09dBfbu8yt643Zw7+YA7rSfp9YxGE/YpgY7gZrAXA55q9/u0pKZ8RzvqRPU31WDHb13QO+9HO4qS8ZlCKQU7su5lu1FvQqvJzrg8UJthhfAaIE+E1woO0XbmuFQRYCfLjmGqMirdXHDu1FSz88CaKy1bofPDa6GgKdjGeYX8B06dDgTX3tPsZ9XUA9hne3xeG6mgVDUG4LthsrODd+H6NcB2UGPUntRvbH+CP7/Pn/texrIdw111PsNDag7gbtPS4a2a5nL7JDeixjUnYK96zwGaK+WDNU9ZB2DMkHdKdgzeY87c4t3S2bKs8waIZDvfNc52IvfrOi9a7dkTHB/Zl9Mr53BHbV0D/xEcfbVMcpLdKFyfzTJBk5xBzzC5ro4nI/vBfv+vYP3VQvAo75p3rx5Qz+A58AW9shRT0m89VPwtWxUGd82x+Z8thTUXyZqO29/b1Sqk7DGhgjzoajXCeqVwO7AkvEC9yvSOdQRsvcuYnILdqP3TXUQyJ3OSqWbwWAO9YnbTWDfpgZ7lgns5sgWNyGQBPU1HOrPHhaDfZsd2N/gPfdDLkIg/VkyDOwM7rAE9fTL8cnoGQI+BLxPwNM+dngFPI+Y+Yek7jEOztNU1BK7AVbJMX/rMmyzojTOhtsajYUDBtS9wt2tJYN5Z+C2WQzov9EA9mh0yxz2vJ3fThEwBN5J2xnYJ/oAexqGKo4hFTkLgZz/EgP4rsPewF4sAXtQlswzZkvGAncO+KEh4EPAVwfA88/4AS+Ax+1uldT5hmrA1CgEaNk4gOXctJDsZ3mTJk1qufpQG0XgJoT7j0q4e7VkbPx2gnI52BfZg727DdjvJM1m/6ssmR4LGcx1gn00alRRhRcvg/vsFxVgf8cb2DeYeu0bgrBkXo2xZMrhvvgVrj326RJCwIeAryLAfy14jsZeLvYA+DzJDaO/1qhzvAlgvX+THPf7eJ7ud3JDSaIc6mjLHHHTa9fit6Ml03SSfrB3Qd2Rz/5W+e0EYi9gz1CAfdQmgNRN7DXVrNQd7+gHO1kxUaD7m5WqtGSWWXrtBtyffiXag/9LCPioB/uhQv/2Ocj6kaLu3QkI+B9szsc3cQJ8tijcEOstcAt4fG6XyBt3M8DttOC5+J3NLxE6h0NpQFZuzUSgdZCWjCoE8o7ZYrD38AF20u2o2/LVUTIE8/GmAdSIxTf3AvaRG5noOdlA6tRdHO5ewX5IDPZ1XOtdhED6sWTMcF/0clRlS/ZB7ZMc8F6kK0zybwkIeC+x4doBj3U+ST1eSR1dXAL+TcF2n0vOSRb9qnMi2r+kjulOQlYpskbo6yO0O8bTkjGHQBLge+kA+2wT2Gcx3TqLhTrKZqWOCwDsKagRG9ijbOLSjOfFYC/1Cfa1bJWl8h6711mpQkvGDPfYXrsBd1iIYwoLXoQ7Q8CHgE9EwPPXtgrq+DtO7z/bBeCPOD33NHvWRfz6rZJTW4MGbyWfiyicNfacIKivahDHEEjzxKWbZ+oD++0msN+K9d4yk20jm5VK8HUK9jSHYCcNL2SzXDOLxROXJmx3DvYiF2Avt14O2Fgyf9RmycTCHTV/N2SGgA8Bn8CAry+JLZ/uAvCHBNt9ESDgowXDI3+B9W0xhVnK6nnJPCEv6sEj1L/wasn4yQLZPCcYsNON4+YZ7HlZojACdCWwl/gHO4lmvI4ukueSIaAbdoxbsK+XgH0VauUfmXSHQMrgvtAEdw74LSc54CkZ1EGFPvEJ+HcVdRcnIOC/szkfX8UT8Pz1p0SfG2V8dDjIul20nWiCkU7AW6JrNtuAPrajhT32HfGYlVopn0yGO7B3MYM9Xw72zqibZrC/ZVkgH18VDNiHrGezX2k7WaIwArdOsK/iYCdwr9jPgK7Nktkj77WXw313FO4w7yX4NIyiCaNoEi2Kxgz4JDbhaL9oApTDHrzsl8pAa1tE6aEpPNMP4I1Cqan5DV/Uls9Rp5dv3DALxsUzUVh57nbU3RKw3+UD7DdNB7gR1Wk6q0+YBXKxGuyjPYKd9ORafK5QnuKXwg8dgf2gO7AboY0r9zsIgVRYMksdWjK8187gTsLwz/znoH4I+BDwCQx42u+veOpeJ/l9rD349rLQRYs1IvsO9BO9v23btr90+1lRDntZKCXlyqkYaM2EbvGwZKy520kE7CDA3mkaQEdUl3xx7nZSDNg3ewf7EAPsqMFrKyRYmCO6r1kvBAP25fsYsOn/OFkyMXCf+2I0hfFvQsCHgE9kwLsZMxCkKqBfAB9Itp+mOl6aoITbvC1435+t2/JFTrbHgFp8DldKAF+x+AxC95J4WDJWuJPaTw0G7CTKEX/LLDHcaV+jN4nBnuoD7E+sARhEWs3qNC/MYdxMyBoywL7RD9j3x4Idk34xUL+qPQQyFu4CsJPm4I1rzouQFwI+BHyiA57D9j0PgE+S2SxcU0U9eYxVr42vlUrsmVTBcUwzEohRQjEcZL1A0oP/H1GdeIO4LGZjTBlwRGcIpMySMXQp17XjHYB9lhrsNwrA3oGLXrOCPap8BuggwD4Q9fhqVo/5V0J5qOXm2FwxVrCv9Qj2JVw4q5SB3VmiMEeWzEJFr70c7i9EZ+nuDgEfDOB1ZpM82QFvin0/7hbwfJbpHlVEE9Y9lmLvUX/gS+t9Jdn2H9aJSrTUIeWvt2z3H9TTWN/DPKY/25RFstIEqEoHi3AvDHStVAHcSdSrdwP2zg7B3n4KQDtUhyliuJN10+8ZDvZN7sH+pBXsayrATgO4A1ax7UVwJxG03YC9wCHYn97DAE0Q9xsC6cSSmcPhPpsr/3n4L60LGwI+EMBrywcfAr687oVuAU+F1qCVREW50c9Yz22CNj3nM9Q0UqnBCPJUt732uh4smXK4j2G6ZAwDum6wkyiPfJs8dgOxwp1E8fcG2FM0gv2xlUz0vAju9KuB4BkD9tfcg32pAOyLUAtfYdDWZsmY4S7qtZOej8I9qhkvQnII+BDw1QHw+Pr5qgRlqhWd+HJ6H3kEMYVmPiKKd+cpHrwC/m80casy4LOgc5CWjAzuJPLOzWA34O4X7KTWk1ldBHYz3LvwtAYjN+oH+6OoRwrwsYBF5YyxzIIlTd4ZDNgJzAteZs/ZhUBqsWReqAD7LNJz0cVK+oeADwFfHQDP6+/lBfB8MLQe1v+yy8/qn3RMihDIZL5oiNvvwIfSBb0vGwlnI9h/DtqSMYPdUIvcYMBOapXL3iuC+x2zWDijU7A/IQP7qliwkx5eAdB/Bft1YB7INUSwdwX2V52BndIQz3uJPfqZlWoH99kSuM9kmh8CPgR8dQE8b8smL4DnpQa28beSWa5m/R955x07djzXSZ20eDZqm4OQzi9oUpVtvQj2d3SGQDqB+8UoTFfsG+xtBWBvyUWvWcFuiEAdBNj7rWAevzGQa5YxeYpgrhvspLkI5Dm7GdB9WzK77S0ZE9hhBiZTm7kLDlYXwFNvyToZxclgJaWaFbyvueo9ookvBHPrdpgz/AzBBBlbiYDnttBMSWu9FAFi9z7ypAVtutbm3DcWnMPGkpDBSsebJEiXS7aJdTu0LC518HmeL9qH2wU2qAdNib/IByd/n9/UB/Gb7ylePhOKoMF67sQ6R1F0DS3WzR+H8yUBT3dUEc4sXerVkqnjwpIxw/3i0ag0jWCfXAH2FjksHQL9QrjDAvfbuX63VC/Y+3OwP4Tqu5y9JwbsHO6kJXtiwf6MJrDTwCflnKftPc9KdeC3zxLAnYSLhP80o5ou4ReWsJywBcE+UGcIpKzXHgN3Lidgb+8S7KRmmHP++knM/rHCnUS9ehXYB9qBvUAMdtIflrOevBXuRuTOrBftwb5YAfb5ErDnv8AmU9HrcbJkDLBHNQ2XIZz+HLQPr6iwhCWBSt10aBkPS8YM94u4CNZmsN+gCeykphPZjcMK99tmMlHvXQfYHzKB/cFlTA8sZTA3eu2pJlGqYt1gN+A+83n2t7YQSIslM6tyrx2mP8vgTpq6A4aEV1RYwpJIA04D4HSE+lGvs1IdWzIWuJOSJ/oAe64c7KRfTWTvF8GdRDAPAuy/5yKP3wr3kTz2Xgj2Pf7ATjnnZ7BoFljMI2pi/Hb9lkw53KeSdkYXE18ZXlFhCUui9eIz4FW/loxbuJPqpgUD9uQJTPS6FewkSn9AoDaDfYAmsP9uCcD9S1i9IriTDKjrBDvaIzCNtIuHTGoMgZRZMjFwR+XthA/CqyksYUmwgkCfpdNvl1kyZtUexUSA9wL2ZgqwXzeBpUO4bjyDuRnshnovcAn2ZyrA/gcF2O/HjJW/XVwxY9YMdmOCFUHbAPsip2B/0R7stDQg9qKjwPYxK7US3KWWzE4T3HdEVZa7FS4Mr6iwhCWRAJ8BD2i1ZBRwr22CO8kJ2Fu4BDvpGtTV43AQd5oF7hi5cwtfGITgTmB/VCPY7yM9zZ4baclOaQh7ukqwz/UI9jwu2k6UKGy+bksmFu4wmR63wR3hFRWWsCRQwYlOv/AzK9WpJWMGO+lCVLMcB2DPcQ920i9R7fIqw90QAV432PugfrOIiWbKWuFOM2gpy6RbsM90AHaaKZu7kwFYlyUzQ2HJWOGeuz2qjPCKCktYEqpADYT6F7osGadwJzWJMLC30gz2X0SYmk8Sw53y3Yji2IVgN8HdCdjvRfVeyLJMWuFuaIEGsE+xgD0XIZvD5ScEcsZzji2ZKNgnby+HO0zaBsXh9RSWsCRYQbDvjIclc6FF9B6dYP8lBzvdOJqMZa/fIoD7zdMZrIMAey/Sgoq0BVa4D9/AYasZ7JO2M03czuDtdVaqDO5TbOCesw33vQ0+qU7fe5xt2Iyvo7mXJ5H6iufb3k+zB3E24YMOp667Klj3r7HuAbqE7e0Tj/NFibFE++dJtGok2udLM4SxbXfj+ZmPj/tMn/FnlMeFFqzmn3M/yjET4PfsJsVnZzsrlZKJ4baPKb4D/SilsbQChPkE7ZaMDdwvSGVqnSsA+yR7sF+jAPtVqMZcnaebwM7hTqIlA3WCvTcHe09UjwXsfSK4kwigUrA/7x3sExCy47ex+uNkyUAOh/skrsh2qJfoYMfl0hrJFlMW6Ce+6HE7jYDf4TPtbKXFueNx3mSrCfEVhW5PlM8Xb0QNsa3LsF3fujiHZQR8VHfd7cG6F8v26yBPzSn8+6dawLufsgYE+j1+ZqU6tWSiSq2AO6l5bgBgz8Z8NyhcezYagmkGe2eTCPAysBtwdwt2Skl8z3z2KII7efPjSjWAfUdlsI/finVvZdv6mZVqtWSmKHrt5XDH/U5ETdgKvRMZ7jyh09ceQVqqY5GN6gh4vCleJElMZqiwqj9bymGD53au0/VXFdpPeYQSAfC4zWSbtubaNuCSVKijIwSytku4kyicUQb267yCncO9QRbz4UVwpzw4ZNHoBnv3eUzd5rF0CMMtcKcsliM3MMiawT5dA9gjW9lsWXpONStVlyVj9NonVsAdxpdCbqLCnRZb8Jl7+9+ipdROBsDjPkbY/dKptGxcHAtPufuBpvP5qTDHepwBj9+TvjY9941JThOaIdT/Nx6WjKHzuWht2CDAjguLR3XtOAHcpzH5BXtPCdi7zmWiCJ3hltzzhma+YA/2yS7BPhaVvYWJoK4zBHKyxJKxwJ30QiLCnS4kWi7Nz4VPy7KdpBZNDcVycWalVcVny332bzSez5FVbdHga51UnRE85j+5yiaKcN+gMwTSCdxJ9HoQYI8uR4gzdBtmiuFOoglPZrD/1gz2p72D/e45bOFvunlY4T6UyyvYJyjAnsWVWcLq9jor1aUlAxNKy+EO47bAfyMROCXRAM/XtPRz0dPg3PknI+B5ilon7fh7kscUuT4+13ao7zSeS629dy+ApzEiPhAsa+NHlK7ZVSMQ8KP8zEp1asmUw30k03mo6yf6B3sDC9jrGTnuMfSz01RmyZjhTpOgbp/pHez3KMBOojVhaftKcF/PRKCcsksP2LNNYM8gFbM6HCcKcxACKeu1W+AOkS3R569NQMCrfr5voPzblKud8ovzRY5XWcCRqastuI/7FItpH5G08T+y94iWgtNZsL1rXfzKuTOOtkxjGxDGDKKiDqOe5YPFhdjW16x+PT6XWpWDrDSOgM+/oziOb+zWIRCWi9PhFp0hkBc4hDsp2SXYG5nBniUHe10+Q7dVTizYy4Xg//0S/WA31oKlR4K5Fe602AiB2DHYtzkHe3oxWxOWBnKDtmQMuI8zwT2C7cgugYcSCe7kDSsumNU2g3YRWpmH/o5HWxEwr8pWB6qicYtLXI5bFMXxpr3TQXvohjkQdbmojqZNm17IV+t6l24WunvvbgBPoY58RSfZsRzHtt7jqREXj4JzEezHgrZkzGA3dFUkGLBfnsZSLpD1Y4U79epJZKNUAvtCf2A3ryRFGSqtcB/C/84LAOzGgt/06DsE0pklEwP3sQzwcxMJ8Hz1I5mX+Ru79ycnJ9eMY1sTCvDUo3Vpcfzs2j7wZhv1cNCWyU2aNKnlpD4O16YB3YgcAR7P9Qyb4xnhqyEI9nd1hkCqeu2Gzh3JZtBawX6VBrBHQz9picCs2F57J5Oo9+4U7N1cgN3IZPng8liwG6Kc9NSDz9EB9uIKsJuXCCSA+7FkchxYMgbcx1bAHbI3w2sJZs+0UwB+UoLdjBIJ8DS4+lfZuqAKEGXGoV0f2FhFgxPo+2cLeFr2T3U8NCHLd0MQ4Mu8WjJe4X5uCiqV9eAdgz3TGdiNQeM6Y8Rw74jqOi8YsBspEujGEQN2DneSDOzjfILdyGRJ9bsNgXRtyZjhXsyUVQw/PrUdaiXKBcZjuI8rvNlx8R4crA6Ap8lLqt4k6m2ZLaKcWRlsuwjuSxOsg6EEPB/E/kkB9+cdr8NqA/hBOkMgZZZMDNy5yH/3C/Y6FrBfYvol0nZyZbh3xElQN03VC/bbTLlvaILVXfliuJPGbnEO9kwXYDeSnNH7Pc9K3WqCu40lY8A9iysT25WxGdom2EW22+bnL8GqZ1IVT7lPJMDTQKQs5p0Wtsa2DlOcz64BnqM5qkHIINJLBAV4WvTc5tfQezROoKUh6MO31mbJpCp67Sa4n8NF9kwQYL+It7vpBBPYOdxJN0xh/rsR8mgF+91uwD4zNt+NEZZJa7+awf4kF8HYD9hHS8BuzJwdUxQnS8YCdw74JxPpIuOTnMoc+LaHKb9Hhw4dzjyZAc8Hpn9SDaTi48WyWaN4HCUBAvMtxef3dFKCFRXgee4j2Wufo67S1xJcwg+hfjRwS8YCdxJB3AnY67oEe23e1quyY+F+g0kE+CDAbgzs0kLcVriTnlrL4B4Fe6kesBtwj4ZmbvA3K1UUAmkH9wwSti+9CFYk4IWW72Kw8BPyceM5wJpIgKdJSwoLpLupvRsl2x0LIoEXHwz9QdG23tUM8DL9gMdyo/bGINz3x8OSOccigrAV7Abc/YDdaCO919xrN9QB1WOeP7DfIgG7YQdRjL0V7tSrH8wB7wrsRfZgN6J2yBYiaDtNFObHkrHAnfReol1oHA7LXV5oHwZyoSU24CnB1YeSdvwTszSeZopmuVthP0R0N4zsChv//foTBPBLAmkMgjE/HpaMobNJI5go2kU32I1fExegOuRZ4J7HRAA3g/0uL2CfXhnsxs2EMleWw31tBdxJ1HMPAuzlPn+Jr1mpohBIW7inkTZBWWQzXJCUeKUGQqA/XkBfurjYjiGsHj9ZAM8nfckAmie4acpSQHxkvhloGmCto/qscED9lycI4I/xMSG95cLR8KDOEEincCeRjaIb7OeZ9k+Jx6xwN1Tea9cIdmM/9Lq5127oibUM5AbY03WAfX3FrwXaB/nwgVsym8t77QT2qMag0jfAbUkJWmiQkF94P7qYpdnvZAA8eeyK83CNYPscRS/+Hs2f29mqz4hyr58ggCcdxePpoLUxONB6tVtL5nwPlowZ7KSzRjD/3SvYL1SA/Ry+j6sjzJIxg709Fw2yugF7Zwdgj9aN0TvtJrMlAs1gj2oNA7MK7KkewW6u31UIpMKSyVZbMuVgJ43eGB0nSEtK8IIXUX3UbJtUuOW+KC16cSIDniYp0WQlyQ3uVdF76JwoBrC3BfCZfZpoCc98AP7vNt+5zzX/KoEaCPWvvPrtdr12GdxJdRyC/SKXYI/uYzgbqLWC3YAwAd4z2KfKwU7hmW1z2YxZK9wHcaWXuAP7MAdgp3oHrmFLB+bEx5KJgXtUG6AoqZoUyv+NF9M8GdxMWnMiA54mKSmO/T/cmxfpmMxqwJtGA51ttEnW9lZSgq0upQI8jRng47/sxoHoF6e2Bl0wCnbFw5I5y6JzOOR1g/1MLtreCvd2HMS/nu0c7De6AHsbVOscdgMRwZ1Ek5eEYN/oHOyDLWAfiGB/fDX75UCg1hUCWcmSMcOdg30UaUNU/0yqZgUvuPY2Cay+czr9vboBnvvpRzRnuiRN0HyOhtnM+ry3ugCeT3Rqa5cRkxKjacuTgxCfpDMEUtVrN2RAmDx4AvslXsCeIgb7GcMAanERfM0gNtR5RjBgb8VFNw4CsBXuBOO0omDATqJcOOTD+5iVqrRk0iy9dgPuqVyYLrl2ogyuugDIfaqLLUibpioBr4qI8amPdQ628oHWn1S2Bm5zZXUBPN+mp2K2taGtWs4jRpz08GrJuIa7CcQkyi+jE+wG3GsOZSIAW+HelovSB7sGe54Y7AbcW+LAbgu+qtQgAdwJyCkbYhfodgz2tWqwP7oS4JGVDLxOQyD9WDJmuNOqVSOx/aPWQt0EuMYo7O8FSgPs8IK86mQEPE1OCgjw1APtpRmaK2z2+Zegx0t0At7JLxNtOWkuHgaX6w6BFPXarXAn0SCrV7CfpQD76UPZ6+1yBXDPZaIoGhnYO3oEewvMdd98IovSEcGdRP+nSMA+xAfYHylgq0pRlI7PWaliS8YMd1OvncDO9VlkN5xW1RcYhTialzmjBRVstr9fdZHh5KdzTjTA06QkhY+uQzt1tpcvinHUbolFVAr2es9Q1UW9Yh46u6IqAc+3ne0A8hk6bJqPfFkyKc4smfLeNhfNonUF9hH2YD9tCBOt7mTttRtwJ0CTD68b7M0msr9pNqsV7AacSWTROAX7IIdg748auMp9CKQfS8aAewpqxHoYW9Vw54nGrLk+fuYTnlpaL3S+KLcqSuPjE3GQlee9hwB1nBboiKcXb7ZscNsCfHwIj/MOGtjEtrTB//vwgfVPTfDsWJWAp3EQB7+kymi9Vn+AHwmbvM5KdWPJmOFOOnMYg7sM7Od4APupQ1hUjtF7b2sBtCGKoHEF9txYsLe0gL3ZBBZ732dxZbg/bhEB3g/YH7WAvf8K9hrBW8OsVFtLxoB7igH3dbA6EZbuw4thgc3FQgOqr6MOOVnXkxJdnWiA54OrH8nyu7tZTJt6zIrzlxvA57tE841oV1UCngoNpvI1V5WLnNPNyk8PfoxfS8YV3E2QJhjrALtRFy34IbJkzHAnWN+QFwv2Dj7ATu8xFt5Wwd0ANfnvOsD+8Ao26ErwHb8lQEtmownsFXD/euR6WIF/35og3mdLzbYDzWhtcaIBniYjqQb2PAyAykJN/6U7tw//1bVVJ+TxGG6oSsCbzqNdRNPXGILazGsP/tZ4WDJWuJMoVNIr2OlvisChJQDbTlZbMm0swCZ1nuYd7G0mMx//gWVir10Gd9JTdmBfrQY7xbunbixfE9VvorBKlswYea/9KIK9FAeH+44sgLOTEqjgBTBfc+9uehwGOuMOeNUycRRR5OEYtivOYR/d7aewVRp81Pg5P1vVgOeQT+bjCMoIJZqs536gFZfwQ7Af1xkCKYN7LYto2UAh2IeLwU6P2N7oalCqKBkr2M3+uQFuiqRxBPZJDOxteQz9g8vEIZAyS8YMd4I2AXywS7A/ziNwCNzmEMg4WDI/oEpRfUeVwLlJCVpokQQ+ceeohiiQjUHGv1cV4GkSkuJXzr/tBijdDlLT4hUBnrt+uI9vNQC+TOfsUa+A55/PbTYhoaR3PeWMR7D/2eusVDeWjFk1Ueel2IOd/iao/2Is6zm3zxPHt8vg3loAdwPwdmCn5yilwQM4O3WQYOKS0pIRwD2qlWyAdaDlJmAFO71OlgiBO56zUhHux0YVwl7UgKdWwXlJ1ajQ4B4tru1glqpwYhMqO8gViqoS8DQJSXdIHuXS57NehfAMMnyR57HPd7lQuPmYX9adPdQP4E03rjKbDshLrjsgCPdndFkyTuEeBfgw1oO3gr0WH4Btks0gLJuV6sRvt4I9qkksRFIEdnofQf13S00zUteqe+0DbXrtZrg/ygEvArsRK0/Adrowh99EYdySOY5g35taCENHFsGlSdW88FDAkRyidgD4M243Noic5jYw2CBJBbA3gN3R2qZ7ZOkH/CS6wvdPVaQ1GBGnzzqFr+Rld2N/lxa8psiagD7TXNm5cDo7FbfNUpzPqFyvL4yQHRwPS6amGe5ctVMrXqvNF+xonStOFKbqtbe1sWRaCUBu/E9/d+FQJ3hbc8n4sWQes0CcRD688dwgDnWCs6e1Uks8z0qNQh3hPhTBXifpBC3cvsHrumU3CjmjVZzIH8ZrvLO2JdLCkhAFfzFcQAOnZB3xz/khWhiEgI43gvNO2hODVkmbeFgyNS2eOuo4Tnj60rBfjIU5ZInC/FgyZrhzC+Yoeuo/UnKwJ9ZUTu/7hEZLxgx3il/Hej6jgVKCdczCHPFIFFYEhxHuERw0bRQiISxhORlKBGoi1H/wOivVsSVTAffD+FwE39MYQd5TlLtdtyXDwf59y4lQinDvmxyBcwavg+Wi3O1SS2aNN0uG6/OHV8IiHDTthNmMT0GwfxHwWqnmEMjD6Qj1MYXQJPyyhyUsJ2FBsB/wGwJZSw33KNRrDYGYgZcbZ8LlUri7sWRypb32Yy1z4DmCertI7KAhQvwJEdi1+e0F8CX+XYCDpt2tU/kR7js9WTLOE4VFoZ5ZCFeH3+6whOUkLwjwOV5npUp77cMZ1Gs+Cdeo9o1Q/8gN3NvY++3HUHux5z60RQ5cItsvLqvXWrvfvhL+bUB9wCI4XbZvhPv4GLhv1bJW6v8g3PNxQZFW4Tc6LGEJS0UPfgT01eS3Hzl9OOSfNhQ6Od03gn2TX0sGddyAepspzgYNCcAI9qOu/fZVleB+FFU6oAD69CkERzP4Jm6H7posmf/Dx3wEe6ckgBrhNzksYQlLpXLuULjax6zUI7WGw5TTh3jrOSLUR4vg7sCSKUPti/bU87ylq0W47/doyRDUC7HHfi/mQj/T7X4nlcBlCPcyjyGQ/8gqgZkZm6B9CPWwhCUsjsqZKfC+C0vmY9QsTBrWgZb/87PfdtPgOrRkypxaMm1y4GDrSZCK6QN8LxGGcB/j2JJZCT8g2EtQv3+iEHynkp1YCvtdWDKfItjn4apQNyVCcq+whCUs1c2mGQ5dEO4/KyyZzxDo8/HvzkmaIYMwn21jybyNvfaMlrl6I0EI1Aj2Pyvg/hMCfcdjq6Ffv+Vwgc59I9A7INy/l8J9C3yJvfYlqDvQ+jk1/IaGJSxh8VVqpcAdCPnDJrB/ecYIWIoWTBeEemCLOhDA2uVBGsL9KxPc38fe+rh2OXBdkMc8sAAuxQlH6xDsxzjcj6FeRA0YvAIuCnLf40ugI0L+DZMl83WkGAoQ6l0jDv38sIQlLGFxVc7C1Z7OSEELJM52wM14E2mfCw3bTYLL4n3MDy+FcxH0jXXYL24LefKRzdAw7KmHJSxhsSv/D3CK+56OS0NlAAAAAElFTkSuQmCC;" parent="1" vertex="1">
          <mxGeometry x="267.72" y="602.7" width="144.56" height="31.53" as="geometry" />
        </mxCell>
        <mxCell id="09qVIn4garVTmZvIWG27-6" value="" style="aspect=fixed;html=1;points=[];align=center;image;fontSize=12;image=img/lib/mscae/Docker.svg;rounded=0;" parent="1" vertex="1">
          <mxGeometry x="315.61" y="550" width="48.78" height="40" as="geometry" />
        </mxCell>
        <mxCell id="09qVIn4garVTmZvIWG27-8" value="aws.greengrass.labs.TheThingsStackLoRaWAN" style="text;html=1;strokeColor=none;fillColor=none;align=center;verticalAlign=middle;whiteSpace=wrap;rounded=0;" parent="1" vertex="1">
          <mxGeometry x="160" y="480" width="360" height="20" as="geometry" />
        </mxCell>
        <mxCell id="09qVIn4garVTmZvIWG27-11" value="" style="aspect=fixed;html=1;points=[];align=center;image;fontSize=12;image=img/lib/mscae/Docker.svg;rounded=0;" parent="1" vertex="1">
          <mxGeometry x="185.61" y="550" width="48.78" height="40" as="geometry" />
        </mxCell>
        <mxCell id="09qVIn4garVTmZvIWG27-12" value="" style="aspect=fixed;html=1;points=[];align=center;image;fontSize=12;image=img/lib/mscae/Docker.svg;rounded=0;" parent="1" vertex="1">
          <mxGeometry x="445.61" y="550" width="48.78" height="40" as="geometry" />
        </mxCell>
        <mxCell id="09qVIn4garVTmZvIWG27-13" value="Redis" style="text;html=1;strokeColor=none;fillColor=none;align=center;verticalAlign=middle;whiteSpace=wrap;rounded=0;dashed=1;" parent="1" vertex="1">
          <mxGeometry x="160.77" y="608.47" width="99.23" height="20" as="geometry" />
        </mxCell>
        <mxCell id="09qVIn4garVTmZvIWG27-14" value="PostgreSQL or CockroachDB" style="text;html=1;strokeColor=none;fillColor=none;align=center;verticalAlign=middle;whiteSpace=wrap;rounded=0;dashed=1;" parent="1" vertex="1">
          <mxGeometry x="420" y="608.47" width="100" height="20" as="geometry" />
        </mxCell>
        <mxCell id="09qVIn4garVTmZvIWG27-15" value="Docker Compose application" style="text;html=1;strokeColor=none;fillColor=none;align=center;verticalAlign=middle;whiteSpace=wrap;rounded=0;dashed=1;" parent="1" vertex="1">
          <mxGeometry x="140" y="520" width="400" height="20" as="geometry" />
        </mxCell>
        <mxCell id="QzUOt9LYZW4u0u_RYMLB-6" value="Interprocess comms" style="rounded=1;whiteSpace=wrap;html=1;" parent="1" vertex="1">
          <mxGeometry x="580" y="717.3" width="80" height="40" as="geometry" />
        </mxCell>
        <mxCell id="QzUOt9LYZW4u0u_RYMLB-10" value="MQTT broker component" style="rounded=1;whiteSpace=wrap;html=1;" parent="1" vertex="1">
          <mxGeometry x="420" y="717.3" width="80" height="40" as="geometry" />
        </mxCell>
        <mxCell id="QzUOt9LYZW4u0u_RYMLB-14" value="" style="edgeStyle=orthogonalEdgeStyle;rounded=0;orthogonalLoop=1;jettySize=auto;html=1;fontColor=#0000FF;strokeColor=#000000;entryX=0.981;entryY=0.5;entryDx=0;entryDy=0;entryPerimeter=0;exitX=0.5;exitY=0;exitDx=0;exitDy=0;startArrow=classic;startFill=1;" parent="1" source="LSmIz5sarzjInVgC53ZV-1" target="dDbz6tNlugugnMeiO2d0-1" edge="1">
          <mxGeometry relative="1" as="geometry">
            <mxPoint x="630" y="120" as="targetPoint" />
            <Array as="points">
              <mxPoint x="620" y="130" />
            </Array>
          </mxGeometry>
        </mxCell>
        <mxCell id="QzUOt9LYZW4u0u_RYMLB-11" value="Custom components" style="rounded=1;whiteSpace=wrap;html=1;" parent="1" vertex="1">
          <mxGeometry x="580" y="780" width="80" height="40" as="geometry" />
        </mxCell>
        <mxCell id="QzUOt9LYZW4u0u_RYMLB-12" value="MQTT bridge component" style="rounded=1;whiteSpace=wrap;html=1;strokeColor=#000000;" parent="1" vertex="1">
          <mxGeometry x="500" y="717.3" width="80" height="40" as="geometry" />
        </mxCell>
        <mxCell id="QzUOt9LYZW4u0u_RYMLB-18" value="&lt;font color=&quot;#ff0000&quot;&gt;TTS Pub/Sub Integration to local broker&lt;/font&gt;" style="text;html=1;strokeColor=none;fillColor=none;align=center;verticalAlign=middle;whiteSpace=wrap;rounded=0;" parent="1" vertex="1">
          <mxGeometry x="300" y="680" width="155.23" height="40" as="geometry" />
        </mxCell>
        <mxCell id="LSmIz5sarzjInVgC53ZV-1" value="Greengrass nucleus" style="rounded=1;whiteSpace=wrap;html=1;" vertex="1" parent="1">
          <mxGeometry x="580" y="640" width="80" height="40" as="geometry" />
        </mxCell>
        <mxCell id="LSmIz5sarzjInVgC53ZV-3" value="" style="endArrow=classic;startArrow=classic;html=1;rounded=0;entryX=0.5;entryY=1;entryDx=0;entryDy=0;exitX=0.5;exitY=0;exitDx=0;exitDy=0;" edge="1" parent="1" source="QzUOt9LYZW4u0u_RYMLB-6" target="LSmIz5sarzjInVgC53ZV-1">
          <mxGeometry width="50" height="50" relative="1" as="geometry">
            <mxPoint x="400" y="670" as="sourcePoint" />
            <mxPoint x="450" y="620" as="targetPoint" />
          </mxGeometry>
        </mxCell>
        <mxCell id="LSmIz5sarzjInVgC53ZV-4" value="" style="endArrow=classic;startArrow=classic;html=1;rounded=0;entryX=0.5;entryY=1;entryDx=0;entryDy=0;" edge="1" parent="1" source="QzUOt9LYZW4u0u_RYMLB-11" target="QzUOt9LYZW4u0u_RYMLB-6">
          <mxGeometry width="50" height="50" relative="1" as="geometry">
            <mxPoint x="400" y="870" as="sourcePoint" />
            <mxPoint x="450" y="820" as="targetPoint" />
          </mxGeometry>
        </mxCell>
        <mxCell id="LSmIz5sarzjInVgC53ZV-5" value="" style="endArrow=classic;startArrow=classic;html=1;rounded=0;entryX=0.5;entryY=0;entryDx=0;entryDy=0;exitX=0.77;exitY=1.005;exitDx=0;exitDy=0;exitPerimeter=0;dashed=1;strokeColor=#FF0000;" edge="1" parent="1" source="dDbz6tNlugugnMeiO2d0-8" target="QzUOt9LYZW4u0u_RYMLB-10">
          <mxGeometry width="50" height="50" relative="1" as="geometry">
            <mxPoint x="400" y="870" as="sourcePoint" />
            <mxPoint x="450" y="820" as="targetPoint" />
          </mxGeometry>
        </mxCell>
      </root>
    </mxGraphModel>
  </diagram>
</mxfile>
